<?xml version="1.0" encoding="iso-8859-1"?>
<!-- Generator: Adobe Illustrator 19.0.0, SVG Export Plug-In . SVG Version: 6.00 Build 0)  -->
<svg version="1.1" id="Capa_1" xmlns="http://www.w3.org/2000/svg" xmlns:xlink="http://www.w3.org/1999/xlink" x="0px" y="0px"
	 viewBox="0 0 512 512" style="enable-background:new 0 0 512 512;" xml:space="preserve">
<g>
	<g>
		<path d="M507.601,81.737L430.277,4.411c-5.862-5.864-15.37-5.864-21.235,0c-5.864,5.863-5.864,15.371,0,21.235l2.942,2.942
			l-42.24,42.075c-0.276,0.275-0.727,0.274-1.001-0.001l-13.757-13.757c-8.541-8.542-19.898-13.246-31.977-13.246
			c-12.079,0-23.435,4.704-31.949,13.218L19.067,327.453C6.771,339.749,0,356.096,0,373.485s6.771,33.737,19.067,46.032
			l73.429,73.43c12.696,12.695,29.369,19.04,46.042,19.04c16.661,0,33.322-6.34,45.994-19.012l270.395-268.979
			c8.968-8.967,13.908-20.891,13.908-33.574c0-12.682-4.939-24.606-13.908-33.573l-12.887-12.888
			c-0.276-0.276-0.276-0.726-0.003-1.001l42.034-42.282l2.296,2.296c2.932,2.932,6.775,4.399,10.617,4.399s7.686-1.467,10.617-4.399
			C513.467,97.108,513.467,87.601,507.601,81.737z M420.739,121.787c-11.912,11.985-11.883,31.458,0.065,43.407l12.888,12.888
			c3.295,3.295,5.11,7.677,5.11,12.338c0,4.661-1.815,9.042-5.083,12.31l-270.394,268.98c-13.673,13.673-35.922,13.672-49.594,0
			l-73.43-73.429c-6.623-6.623-10.271-15.43-10.271-24.797c0-9.367,3.648-18.173,10.244-24.769L312.265,78.14
			c2.869-2.869,6.685-4.45,10.741-4.45c4.058,0,7.872,1.581,10.741,4.45l13.758,13.757c11.961,11.963,31.445,11.981,43.43,0.042
			l41.979-41.815l29.614,29.621L420.739,121.787z"/>
	</g>
</g>
<g>
	<g>
		<path d="M217.475,327.326c-2.855-2.858-5.398-4.203-7.622-4.038c-2.226,0.167-4.769,1.679-7.625,4.534
			c-4.85,4.85-5.846,8.97-2.989,12.358c1.262,1.529,2.209,2.774,2.841,3.736c0.631,0.964,1.294,2.326,1.992,4.086
			c0.698,1.762,0.731,3.555,0.1,5.381c-0.632,1.829-1.877,3.672-3.736,5.531c-6.046,6.046-12.39,5.748-19.034-0.896l-26.409-26.409
			c-6.643-6.642-6.976-12.955-0.997-18.934c5.713-5.713,11.659-5.68,17.839,0.1c3.321,2.924,7.474,1.893,12.456-3.089
			c2.79-2.79,4.269-5.298,4.435-7.524c0.166-2.225-1.179-4.766-4.035-7.623c-6.178-6.178-13.369-8.685-21.576-7.524
			c-8.204,1.163-15.962,5.399-23.268,12.706c-7.11,7.109-10.98,14.765-11.611,22.97c-0.633,8.206,3.107,16.36,11.212,24.465
			l26.409,26.409c8.106,8.106,16.258,11.843,24.464,11.212c8.205-0.631,15.861-4.501,22.97-11.61
			c7.307-7.308,11.445-15.163,12.407-23.568C226.661,341.194,223.921,333.771,217.475,327.326z"/>
	</g>
</g>
<g>
	<g>
		<path d="M269.694,269.726l-26.41-26.41c-8.104-8.104-16.263-11.838-24.474-11.202c-8.211,0.638-16.012,4.653-23.406,12.047
			c-7.299,7.3-11.259,15.046-11.879,23.239c-0.619,8.193,3.124,16.343,11.229,24.448l26.409,26.409
			c8.106,8.106,16.255,11.847,24.448,11.229c8.195-0.621,15.941-4.58,23.239-11.879c7.395-7.394,11.409-15.195,12.047-23.405
			C281.532,285.99,277.799,277.832,269.694,269.726z M255.296,304.052c-5.748,5.748-11.943,5.302-18.587-1.342L210.3,276.301
			c-6.643-6.642-7.09-12.839-1.342-18.587c5.877-5.877,12.14-5.494,18.782,1.148l26.409,26.409
			C260.792,291.915,261.172,298.175,255.296,304.052z"/>
	</g>
</g>
<g>
	<g>
		<path d="M342.638,238.437c-0.466-2.326-1.594-4.387-3.388-6.18c-1.794-1.794-3.822-2.885-6.088-3.278
			c-2.266-0.391-4.033,0.046-5.302,1.315l-26.277,26.277l-0.907-0.906c-1.611-1.612-2.298-4.45-2.061-8.518
			c0.24-4.067,0.872-8.629,1.895-13.681c1.021-5.051,1.824-10.289,2.411-15.71c0.587-5.421,0.168-10.981-1.256-16.676
			c-1.422-5.696-4.15-10.56-8.181-14.59c-6.181-6.181-13.43-8.758-21.745-7.73c-8.316,1.027-15.574,4.643-21.779,10.847
			c-6.02,6.02-9.518,13.005-10.493,20.957c-0.975,7.952,1.426,14.818,7.206,20.598c5.381,5.381,10.365,5.778,14.955,1.188
			c2.427-2.427,3.79-4.961,4.093-7.61c0.304-2.646-0.337-4.763-1.925-6.35c-2.689-2.689-3.946-5.362-3.774-8.015
			c0.172-2.655,1.368-5.093,3.59-7.315c2.558-2.557,5.198-3.753,7.922-3.59c2.723,0.167,5.024,1.188,6.904,3.069
			c2.351,2.351,3.675,5.864,3.972,10.537c0.297,4.673,0.008,9.732-0.873,15.179l-2.297,16.001
			c-0.747,5.294-0.754,10.445-0.012,15.453c0.741,5.008,2.548,8.948,5.422,11.823l9.727,9.726c1.337,1.337,3.22,1.727,5.652,1.168
			c2.432-0.56,4.408-1.603,5.937-3.131l35.476-35.476C342.703,242.557,343.102,240.763,342.638,238.437z"/>
	</g>
</g>
<g>
	<g>
		<path d="M374.631,192.923l-54.036-54.038c-5.863-5.864-15.371-5.864-21.235,0c-5.864,5.863-5.864,15.371,0,21.235l54.037,54.039
			c2.932,2.932,6.775,4.399,10.617,4.399c3.842,0,7.686-1.466,10.617-4.399C380.496,208.295,380.496,198.788,374.631,192.923z"/>
	</g>
</g>
<g>
	<g>
		<path d="M165.806,401.75l-54.037-54.038c-5.863-5.864-15.371-5.864-21.235,0c-5.864,5.864-5.864,15.371,0,21.235l54.038,54.038
			c2.932,2.932,6.775,4.399,10.617,4.399c3.842,0,7.686-1.466,10.617-4.399C171.67,417.121,171.67,407.614,165.806,401.75z"/>
	</g>
</g>
<g>
</g>
<g>
</g>
<g>
</g>
<g>
</g>
<g>
</g>
<g>
</g>
<g>
</g>
<g>
</g>
<g>
</g>
<g>
</g>
<g>
</g>
<g>
</g>
<g>
</g>
<g>
</g>
<g>
</g>
</svg>
