<?xml version="1.0" encoding="iso-8859-1"?>
<!-- Generator: Adobe Illustrator 19.0.0, SVG Export Plug-In . SVG Version: 6.00 Build 0)  -->
<svg version="1.1" id="Capa_1" xmlns="http://www.w3.org/2000/svg" xmlns:xlink="http://www.w3.org/1999/xlink" x="0px" y="0px"
	 viewBox="0 0 511.999 511.999" style="enable-background:new 0 0 511.999 511.999;" xml:space="preserve">
<g>
	<g>
		<g>
			<path d="M161.848,180.923c-4.038-0.917-8.056,1.624-8.966,5.663c-1.455,6.442-4.467,11.982-8.951,16.467
				c-15.113,15.113-42.169,12.653-60.305-5.484c-9.704-9.703-18.899-25.913-23.426-41.293c-4.714-16.019-3.925-28.699,2.165-34.788
				c13.231-13.235,55.976,1.156,76.081,21.262c5.217,5.216,9.213,11.193,11.879,17.768c1.558,3.839,5.932,5.688,9.767,4.132
				c3.839-1.557,5.689-5.931,4.132-9.767c-3.425-8.443-8.529-16.094-15.173-22.738c-11.52-11.52-29.785-21.946-47.665-27.207
				c-21.763-6.405-39.39-4.292-49.628,5.946c-10.238,10.239-12.351,27.864-5.947,49.629c5.262,17.88,15.687,36.144,27.207,47.665
				c13.052,13.051,29.826,19.729,45.787,19.729c13.372,0,26.174-4.689,35.73-14.244c6.43-6.431,10.916-14.649,12.975-23.77
				C168.426,185.849,165.889,181.835,161.848,180.923z"/>
			<path d="M504.5,141.984c-9.049-8.236-23.059-7.768-31.891,1.064l-68.327,68.328c-3.223,3.224-8.468,3.225-11.691,0.001
				c-3.224-3.225-3.224-8.469,0-11.691l68.636-68.636c8.927-8.927,8.927-23.451-0.001-32.378c-8.926-8.925-23.45-8.924-32.377,0
				l-68.636,68.637c-1.562,1.562-3.638,2.422-5.846,2.422s-4.284-0.86-5.846-2.423c-3.224-3.223-3.224-8.468,0-11.69l68.635-68.636
				c4.325-4.324,6.707-10.072,6.707-16.188s-2.382-11.864-6.706-16.19c-8.925-8.924-23.449-8.925-32.378,0.001L366.313,73.07
				c-2.929,2.929-2.929,7.678,0.001,10.605c2.928,2.928,7.677,2.929,10.606-0.001l18.464-18.465
				c1.491-1.491,3.475-2.313,5.583-2.313h0.001c2.108,0,4.091,0.821,5.583,2.313c1.491,1.491,2.313,3.474,2.313,5.582
				c0,2.108-0.821,4.091-2.314,5.582l-68.636,68.637c-9.07,9.072-9.07,23.833,0,32.903c4.395,4.395,10.237,6.815,16.452,6.815
				c6.216,0,12.058-2.421,16.452-6.815l68.635-68.636c3.08-3.077,8.09-3.078,11.165,0c3.079,3.078,3.079,8.087,0,11.164
				l-68.636,68.636c-9.07,9.07-9.07,23.832,0,32.904c9.07,9.07,23.832,9.07,32.904,0l68.328-68.329
				c3.108-3.107,8.128-3.363,11.189-0.577c1.621,1.476,2.542,3.487,2.594,5.664c0.051,2.181-0.77,4.23-2.311,5.771l-79.782,79.784
				c-26.75,26.748-65.408,34.922-94.007,19.877c-3.055-1.605-6.814-0.921-9.104,1.663L207.171,383.861
				c-2.748,3.1-2.463,7.839,0.638,10.586c1.428,1.266,3.203,1.888,4.972,1.888c2.071,0,4.133-0.853,5.615-2.525l30.319-34.203
				l78.536,88.598c8.094,9.129,19.267,14.358,31.462,14.724c0.456,0.014,0.909,0.021,1.363,0.021
				c11.683,0,22.62-4.526,30.922-12.829c8.628-8.627,13.177-20.094,12.811-32.288c-0.367-12.194-5.597-23.367-14.727-31.46
				l-91.889-81.453l22.082-24.911c33.657,14.508,76.489,4.639,106.235-25.105l79.783-79.784c4.404-4.405,6.847-10.502,6.7-16.73
				C511.844,152.072,509.183,146.247,504.5,141.984z M379.133,397.596c6.003,5.322,9.441,12.668,9.682,20.687
				c0.241,8.019-2.75,15.558-8.424,21.231c-5.672,5.672-13.215,8.659-21.229,8.422c-8.02-0.241-15.366-3.68-20.689-9.682
				L258.735,348.3l28.508-32.159L379.133,397.596z"/>
			<path d="M192.025,412.254c-3.101-2.748-7.84-2.463-10.587,0.637l-23.868,26.925c-4.982,5.621-12.143,8.995-19.647,9.256
				c-7.291,0.251-14.171-2.379-19.308-7.418c-5.327-5.226-8.157-12.207-7.97-19.661c0.188-7.456,3.365-14.285,8.944-19.232
				l174.47-154.657c2.584-2.29,3.271-6.049,1.663-9.104c-15.046-28.6-6.873-67.257,19.877-94.006l41.048-41.048
				c2.929-2.93,2.929-7.678,0-10.606c-2.93-2.928-7.678-2.928-10.606,0l-41.048,41.048c-29.744,29.745-39.613,72.581-25.105,106.235
				l-27.615,24.479l-44.718-39.642c15.569-35.699,5.136-81.27-26.487-112.895c-19.948-19.949-51.653-38.024-82.74-47.17
				c-36.753-10.815-66.197-7.568-82.911,9.143c-16.712,16.713-19.96,46.157-9.144,82.911c9.148,31.088,27.223,62.791,47.171,82.739
				c31.623,31.625,77.197,42.058,112.894,26.488l37.032,41.776l-93.728,83.084c-8.601,7.625-13.699,18.587-13.989,30.077
				c-0.29,11.488,4.252,22.696,12.46,30.748c7.742,7.595,17.927,11.726,28.822,11.726c0.502,0,1.007-0.009,1.512-0.026
				c11.591-0.405,22.652-5.616,30.347-14.297l23.868-26.924C195.41,419.742,195.125,415.003,192.025,412.254z M173.81,252.497
				c-2.29-2.585-6.048-3.27-9.104-1.663c-30.638,16.118-72.029,7.38-100.655-21.249c-18.005-18.003-35.036-47.979-43.39-76.368
				c-9.061-30.791-7.108-55.603,5.362-68.07C38.491,72.676,63.3,70.725,94.094,79.786c28.387,8.354,58.364,25.385,76.368,43.388
				c28.628,28.628,37.366,70.019,21.249,100.656c-1.607,3.056-0.921,6.814,1.663,9.104l47.595,42.191l-26.376,23.381L173.81,252.497
				z"/>
		</g>
	</g>
</g>
<g>
</g>
<g>
</g>
<g>
</g>
<g>
</g>
<g>
</g>
<g>
</g>
<g>
</g>
<g>
</g>
<g>
</g>
<g>
</g>
<g>
</g>
<g>
</g>
<g>
</g>
<g>
</g>
<g>
</g>
</svg>
