<?xml version="1.0" encoding="iso-8859-1"?>
<!-- Generator: Adobe Illustrator 19.0.0, SVG Export Plug-In . SVG Version: 6.00 Build 0)  -->
<svg version="1.1" id="Capa_1" xmlns="http://www.w3.org/2000/svg" xmlns:xlink="http://www.w3.org/1999/xlink" x="0px" y="0px"
	 viewBox="0 0 512 512" style="enable-background:new 0 0 512 512;" xml:space="preserve">
<g>
	<g>
		<path d="M453.364,0H58.636C26.304,0,0,26.304,0,58.636v175.828c0,4.024,3.262,7.287,7.287,7.287c4.025,0,7.287-3.262,7.287-7.287
			V58.636c0-24.296,19.767-44.062,44.063-44.062h394.728c24.296,0,44.063,19.766,44.063,44.062v394.729
			c0,24.296-19.767,44.062-44.063,44.062H58.636c-24.296,0-44.063-19.766-44.063-44.062V269.521c0-4.024-3.262-7.286-7.287-7.286
			c-4.025,0-7.286,3.262-7.286,7.286v183.844C0,485.696,26.304,512,58.636,512h394.728C485.696,512,512,485.696,512,453.364V58.636
			C512,26.304,485.696,0,453.364,0z"/>
	</g>
</g>
<g>
	<g>
		<path d="M446.994,37.412H65.006c-15.216,0-27.595,12.379-27.595,27.594v381.989c0,15.216,12.379,27.594,27.595,27.594h381.988
			c15.216,0,27.595-12.379,27.595-27.594V65.006C474.589,49.79,462.21,37.412,446.994,37.412z M460.016,446.995
			c0,7.18-5.842,13.021-13.022,13.021H65.006c-7.181,0-13.022-5.842-13.022-13.022V65.006c0-7.18,5.842-13.021,13.022-13.021
			h381.988c7.18,0,13.022,5.842,13.022,13.021V446.995z"/>
	</g>
</g>
<g>
	<g>
		<path d="M256,67.684C152.162,67.684,67.683,152.162,67.683,256S152.161,444.316,256,444.316
			c103.838,0,188.317-84.478,188.317-188.316S359.838,67.684,256,67.684z M256,429.743c-95.802,0-173.743-77.941-173.743-173.743
			S160.198,82.257,256,82.257S429.744,160.198,429.744,256S351.802,429.743,256,429.743z"/>
	</g>
</g>
<g>
	<g>
		<path d="M255.934,233.014c-12.504,0-22.676,10.172-22.676,22.676c0,12.504,10.172,22.676,22.676,22.676
			s22.676-10.172,22.676-22.676C278.61,243.186,268.438,233.014,255.934,233.014z M255.934,263.793
			c-4.468,0-8.103-3.635-8.103-8.103c0-4.468,3.634-8.103,8.103-8.103c4.468,0,8.103,3.635,8.103,8.103
			S260.402,263.793,255.934,263.793z"/>
	</g>
</g>
<g>
	<g>
		<path d="M391.801,287.488c-12.331-32.841-58.184-40.859-88.256-42.485c-0.721-3.213-1.759-6.305-3.08-9.245
			c9.248-7.877,18.238-16.71,26.239-25.811c2.657-3.022,2.361-7.627-0.662-10.283c-3.023-2.658-7.626-2.361-10.283,0.662
			c-7.111,8.09-15.049,15.959-23.236,23.053c-7.022-7.99-16.383-13.393-26.762-15.498c-0.008-0.002-0.017-0.003-0.025-0.005
			c-0.767-0.155-1.539-0.296-2.317-0.415c-0.174-0.027-0.35-0.045-0.525-0.07c-0.63-0.089-1.261-0.177-1.897-0.242
			c-0.384-0.04-0.772-0.062-1.158-0.092c-0.446-0.035-0.89-0.079-1.339-0.102c-0.85-0.044-1.705-0.068-2.566-0.068
			c-0.904,0-1.801,0.029-2.693,0.078c-0.35,0.019-0.697,0.053-1.046,0.08c-0.528,0.04-1.055,0.081-1.578,0.138
			c-0.449,0.048-0.895,0.11-1.342,0.171c-0.403,0.055-0.805,0.111-1.204,0.176c-0.514,0.083-1.025,0.176-1.535,0.275
			c-0.303,0.059-0.604,0.122-0.904,0.187c-0.58,0.124-1.158,0.255-1.732,0.401c-0.168,0.043-0.333,0.09-0.5,0.135
			c-2.952,0.782-5.82,1.839-8.578,3.169c-0.012,0.006-0.024,0.011-0.036,0.017c-0.275,0.133-0.555,0.251-0.828,0.389
			c-10.944-20.76-26.823-58.744-10.259-79.954c13.618-17.438,45.896-22.663,71.843-20.107c23.7,2.335,43.161,10.927,48.426,21.38
			c4.492,8.918,1.524,23.113-8.358,39.97c-2.035,3.472-0.87,7.936,2.601,9.971c3.472,2.035,7.936,0.871,9.971-2.601
			c12.649-21.577,15.693-40.214,8.801-53.895c-7.77-15.427-30.205-26.391-60.013-29.328c-27.726-2.73-66.564,2.344-84.758,25.64
			c-21.598,27.657-4.507,70.983,9.789,97.486c-1.838,1.781-3.543,3.698-5.085,5.747c-25.276-9.496-52.72-15.095-74.485-15.095
			c-23.608,0-39.812,6.217-48.163,18.479c-9.724,14.277-8.432,39.214,3.456,66.707c11.058,25.575,34.331,57.076,63.527,61.688
			c2.306,0.361,4.663,0.546,7.006,0.546c0.002,0-0.001,0,0.001,0c31.788,0,58.64-33.223,73.477-56.354
			c2.576,0.785,5.244,1.353,7.981,1.703c6.826,42.732,28.314,102.117,63.44,105.004c0.824,0.068,1.673,0.102,2.52,0.102
			c0.004,0,0.005,0,0.009,0c21.373,0,43.61-21.1,57.292-40.846C388.398,346.09,401.441,313.161,391.801,287.488z M168.258,344.163
			c-1.584,0-3.177-0.124-4.733-0.371c-21.854-3.451-42.077-29.144-52.426-53.076c-9.452-21.86-11.376-43.046-4.787-52.721
			c6.816-10.008,23.404-12.109,36.119-12.109c19.588,0,44.346,4.98,67.514,13.472c-0.058,0.164-0.108,0.331-0.164,0.496
			c-0.583,1.695-1.076,3.431-1.471,5.204c-0.027,0.119-0.057,0.237-0.082,0.356c-0.108,0.499-0.202,1.003-0.294,1.508
			c-0.045,0.244-0.09,0.487-0.131,0.732c-0.074,0.447-0.141,0.895-0.203,1.346c-0.045,0.327-0.086,0.654-0.125,0.981
			c-0.046,0.394-0.091,0.788-0.128,1.185c-0.04,0.432-0.07,0.865-0.099,1.299c-0.02,0.31-0.046,0.619-0.06,0.931
			c-0.036,0.763-0.058,1.528-0.058,2.294c0,0.953,0.035,1.898,0.089,2.837c0.014,0.234,0.036,0.466,0.053,0.7
			c0.053,0.741,0.121,1.478,0.208,2.209c0.025,0.206,0.051,0.411,0.079,0.616c0.109,0.829,0.237,1.652,0.387,2.468
			c0.015,0.083,0.029,0.166,0.044,0.248c1.301,6.882,4.048,13.256,7.917,18.795c0.026,0.037,0.053,0.074,0.079,0.112
			c0.495,0.704,1.008,1.394,1.539,2.07c0.103,0.132,0.205,0.263,0.309,0.394c0.488,0.609,0.99,1.207,1.506,1.792
			c0.111,0.126,0.218,0.256,0.33,0.381c0.596,0.662,1.209,1.31,1.84,1.939c0.21,0.21,0.431,0.409,0.646,0.616
			c0.416,0.4,0.835,0.797,1.265,1.182c0.313,0.281,0.634,0.554,0.955,0.828c0.352,0.299,0.708,0.593,1.068,0.882
			c0.349,0.28,0.698,0.558,1.055,0.829c0.375,0.284,0.758,0.557,1.141,0.831c0.282,0.202,0.554,0.416,0.841,0.612
			C216.558,314.241,193.169,344.163,168.258,344.163z M256.033,289.917c-0.034,0-0.067,0.003-0.1,0.003
			c-5.144,0-10.023-1.148-14.405-3.189c-0.663-0.308-1.315-0.632-1.951-0.979c-0.107-0.058-0.21-0.123-0.316-0.182
			c-0.527-0.295-1.043-0.604-1.551-0.925c-0.196-0.124-0.392-0.248-0.586-0.376c-0.569-0.375-1.129-0.762-1.672-1.168
			c-0.125-0.094-0.244-0.194-0.368-0.289c-0.454-0.35-0.898-0.71-1.332-1.081c-0.167-0.143-0.334-0.286-0.499-0.432
			c-0.528-0.469-1.047-0.947-1.543-1.446c-0.021-0.021-0.04-0.043-0.061-0.064c-0.509-0.514-0.999-1.046-1.473-1.59
			c-0.077-0.089-0.154-0.177-0.231-0.267c-4.159-4.866-6.933-10.851-7.881-17.289c-0.002-0.011-0.003-0.022-0.004-0.034
			c-0.104-0.714-0.179-1.435-0.238-2.159c-0.013-0.167-0.027-0.335-0.038-0.503c-0.05-0.749-0.083-1.502-0.083-2.26
			c0.001-0.676,0.026-1.355,0.066-2.032c0.01-0.172,0.026-0.342,0.039-0.514c0.04-0.53,0.089-1.059,0.154-1.586
			c0.019-0.157,0.039-0.313,0.06-0.469c0.083-0.611,0.18-1.22,0.296-1.826c0.01-0.052,0.018-0.106,0.028-0.158
			c0.269-1.372,0.625-2.726,1.059-4.054c0.038-0.115,0.078-0.229,0.117-0.344c0.18-0.531,0.374-1.057,0.58-1.578
			c0.056-0.142,0.11-0.286,0.169-0.427c0.247-0.602,0.509-1.199,0.79-1.787c0.03-0.063,0.062-0.124,0.093-0.187
			c0.258-0.53,0.533-1.051,0.818-1.567c2.505-4.523,6.006-8.417,10.202-11.395c0.37-0.263,0.744-0.518,1.122-0.764
			c0.291-0.19,0.58-0.382,0.877-0.563c0.53-0.323,1.069-0.628,1.613-0.921c0.336-0.181,0.677-0.354,1.02-0.523
			c0.366-0.181,0.736-0.352,1.108-0.52c0.507-0.229,1.021-0.445,1.541-0.65c0.376-0.148,0.753-0.291,1.134-0.425
			c0.344-0.121,0.688-0.241,1.037-0.351c0.619-0.195,1.242-0.375,1.872-0.535c0.288-0.073,0.581-0.136,0.872-0.202
			c0.538-0.121,1.079-0.231,1.623-0.326c0.218-0.038,0.434-0.083,0.653-0.117c0.744-0.115,1.495-0.202,2.25-0.268
			c0.205-0.018,0.412-0.033,0.618-0.047c0.803-0.056,1.609-0.095,2.421-0.095c0.675,0,1.345,0.026,2.012,0.064
			c0.238,0.014,0.474,0.035,0.711,0.054c0.418,0.033,0.834,0.072,1.249,0.12c0.298,0.035,0.596,0.071,0.892,0.114
			c0.322,0.045,0.641,0.1,0.961,0.154c0.355,0.061,0.712,0.118,1.063,0.19c0.009,0.002,0.018,0.004,0.028,0.006
			c8.28,1.705,15.476,6.412,20.401,12.927c0.055,0.074,0.112,0.146,0.167,0.22c0.268,0.361,0.528,0.728,0.783,1.1
			c0.123,0.18,0.241,0.363,0.361,0.546c3.014,4.589,4.953,9.939,5.462,15.697c0,0.005,0,0.01,0.001,0.015
			c0.046,0.532,0.08,1.037,0.104,1.526c0.022,0.497,0.038,0.996,0.038,1.498c0,0.588-0.015,1.173-0.045,1.754
			c-0.916,18.004-15.849,32.415-34.074,32.475C256.042,289.916,256.038,289.917,256.033,289.917z M360.996,360.045
			c-14.33,20.681-32.538,34.575-45.313,34.573c-0.001,0-0.004,0-0.005,0c-0.452,0-0.899-0.018-1.33-0.053
			c-22.441-1.845-42.661-47.193-49.931-90.814c0.188-0.033,0.373-0.076,0.56-0.111c0.412-0.078,0.823-0.156,1.231-0.244
			c0.288-0.062,0.573-0.132,0.859-0.199c0.444-0.104,0.889-0.206,1.328-0.322c0.053-0.014,0.104-0.031,0.157-0.045
			c1.196-0.321,2.373-0.688,3.531-1.095c0.069-0.024,0.14-0.046,0.209-0.071c0.521-0.186,1.035-0.386,1.548-0.589
			c0.146-0.058,0.292-0.114,0.437-0.173c0.508-0.207,1.01-0.423,1.509-0.647c0.13-0.058,0.26-0.117,0.39-0.177
			c0.522-0.239,1.039-0.485,1.551-0.742c0.061-0.031,0.122-0.063,0.184-0.094c7.074-3.581,13.157-8.832,17.735-15.236
			c0.004-0.006,0.008-0.012,0.013-0.018c1.86-2.603,3.469-5.395,4.795-8.342c0.058-0.129,0.118-0.256,0.174-0.385
			c0.207-0.471,0.405-0.946,0.597-1.425c0.081-0.202,0.161-0.404,0.239-0.606c0.173-0.448,0.342-0.898,0.502-1.353
			c0.085-0.242,0.165-0.486,0.247-0.729c0.146-0.436,0.292-0.871,0.426-1.312c0.085-0.28,0.16-0.563,0.24-0.845
			c0.182-0.641,0.352-1.286,0.508-1.937c0.107-0.446,0.216-0.891,0.31-1.342c0.067-0.321,0.123-0.646,0.184-0.97
			c0.08-0.426,0.16-0.852,0.23-1.282c0.051-0.32,0.096-0.642,0.141-0.964c0.063-0.445,0.12-0.892,0.171-1.341
			c0.035-0.31,0.067-0.62,0.096-0.932c0.017-0.187,0.042-0.371,0.057-0.558c23.421,1.488,64.119,7.747,73.58,32.944
			C384.468,309.42,377.733,335.89,360.996,360.045z"/>
	</g>
</g>
<g>
	<g>
		<path d="M418.246,56.997c-17.054,0-30.927,13.874-30.927,30.927c0,17.053,13.874,30.928,30.927,30.928
			c17.054,0,30.927-13.874,30.927-30.927S435.3,56.997,418.246,56.997z M418.246,104.278c-9.018,0-16.354-7.336-16.354-16.354
			s7.336-16.354,16.354-16.354S434.6,78.906,434.6,87.924S427.264,104.278,418.246,104.278z"/>
	</g>
</g>
<g>
</g>
<g>
</g>
<g>
</g>
<g>
</g>
<g>
</g>
<g>
</g>
<g>
</g>
<g>
</g>
<g>
</g>
<g>
</g>
<g>
</g>
<g>
</g>
<g>
</g>
<g>
</g>
<g>
</g>
</svg>
